<svg xmlns="http://www.w3.org/2000/svg" fill="none" width="1em" height="1em" viewBox="0 0 40 40">
  <defs>
    <clipPath id="service_svg__a">
      <rect width="40" height="40" rx="0"></rect>
    </clipPath>
  </defs>
  <g clip-path="url(#service_svg__a)">
    <path
      d="M20.01 2c7.852 0 14.576 5.56 15.967 13.2a1.43 1.43 0 0 1-1.169 1.66 1.444 1.444 0 0 1-1.677-1.156C31.977 9.41 26.423 4.844 19.956 4.87 13.488 4.896 7.972 9.508 6.87 15.81a1.444 1.444 0 0 1-1.668 1.17 1.431 1.431 0 0 1-1.182-1.65C5.358 7.63 12.11 2 20.01 2Z"
      fill="#FFF"></path>
    <path
      d="M5.176 15c2.19 0 4.008 1.705 4.165 3.906l.01.302v2.818c-.007 2.26-1.786 4.111-4.028 4.192-2.242.08-4.146-1.638-4.313-3.892l-.01-.3v-2.818C1 16.884 2.87 15 5.176 15Zm0 2.922a1.28 1.28 0 0 0-1.262 1.095l-.014.19v2.82c.005.669.518 1.223 1.181 1.273a1.278 1.278 0 0 0 1.356-1.083l.013-.19v-2.82a1.28 1.28 0 0 0-1.276-1.285h.002ZM34.824 15c2.19 0 4.01 1.704 4.166 3.906l.01.302v2.818a4.2 4.2 0 0 1-3.42 4.138C33.573 32.672 27.347 37 20 37c-.8 0-1.45-.654-1.45-1.461v-2.357l.013-.199A1.454 1.454 0 0 1 20 31.72l.197.014c.718.1 1.253.717 1.253 1.447v.83l.623-.072c5.034-.682 9.093-3.83 10.626-8.293a4.202 4.202 0 0 1-2.04-3.319l-.01-.3v-2.818c0-2.324 1.87-4.208 4.177-4.208h-.002Zm0 2.922a1.28 1.28 0 0 0-1.26 1.095l-.014.19v2.82c.004.669.518 1.223 1.18 1.273a1.278 1.278 0 0 0 1.356-1.083l.014-.19v-2.82a1.28 1.28 0 0 0-1.276-1.285Z"
      fill="#FFF"></path>
    <path
      d="M24.55 24.437a1.417 1.417 0 0 1 2.018-.029c.565.556.578 1.469.029 2.04C24.955 28.154 22.725 29 20 29c-2.725 0-4.955-.846-6.597-2.552a1.454 1.454 0 0 1 .03-2.04 1.417 1.417 0 0 1 2.018.029c1.073 1.115 2.559 1.678 4.549 1.678 1.99 0 3.476-.563 4.55-1.678Z"
      fill="#FFF"></path>
  </g>
</svg>